<svg width="110" height="29" viewBox="0 0 110 29" fill="none" xmlns="http://www.w3.org/2000/svg">
<g clip-path="url(#clip0)">
<path d="M89.2891 0C86.6874 0.965289 83.9984 1.60422 81.2221 1.91679V2.82691C82.0127 3.1211 82.5643 3.35552 82.8768 3.53019C83.1986 3.69567 83.41 3.87489 83.5112 4.068C83.6215 4.25186 83.6767 4.48629 83.6766 4.77128V5.47456V17.9681C83.6767 18.9058 83.5066 19.6321 83.1664 20.1469C82.8263 20.6526 82.3574 20.9054 81.7599 20.9054C81.53 20.9054 81.3508 20.887 81.2221 20.8502V22.2844C83.263 22.0729 85.1338 21.9672 86.8345 21.9672C88.5628 21.9672 90.4475 22.0729 92.4883 22.2844V20.8502C92.3229 20.9054 92.1252 20.933 91.8954 20.933C91.3898 20.933 90.9623 20.7169 90.6129 20.2848C90.2636 19.8436 90.0889 19.1081 90.0889 18.0785V0.399905L89.2891 0ZM9.72183 1.58583C8.9496 1.58583 7.47868 1.64099 5.30908 1.75131C3.49802 1.83405 1.72832 1.94897 0 2.09605V3.55777C0.165479 3.50261 0.372326 3.47504 0.620542 3.47504C1.17214 3.47504 1.65018 3.63592 2.05468 3.95768C2.45918 4.27944 2.66144 4.86321 2.66144 5.70899V18.699C2.66144 19.5448 2.4362 20.1147 1.98573 20.4089C1.53527 20.7031 0.873355 20.8502 0 20.8502V22.2844C3.48423 22.0729 5.67681 21.9672 6.57775 21.9672C8.58187 21.9672 10.7836 22.0729 13.1831 22.2844V20.9054C12.9992 20.9422 12.728 20.9605 12.3695 20.9605C11.5972 20.9605 10.9032 20.7996 10.2872 20.4779C9.68045 20.1561 9.37708 19.5816 9.37708 18.7542V13.9553C10.609 14.1759 11.68 14.2863 12.5901 14.2863C14.2449 14.2863 15.6744 14.0104 16.8787 13.4589C18.0831 12.9073 18.9932 12.1396 19.6091 11.156C20.2251 10.1631 20.533 9.04153 20.533 7.79125C20.5147 6.81678 20.3216 5.9572 19.9539 5.21255C19.5861 4.45871 19.0162 3.81978 18.2439 3.29577C17.4717 2.77175 16.4605 2.37185 15.2102 2.09605C13.9691 1.81106 12.4568 1.65018 10.6733 1.61341C10.5262 1.60428 10.3929 1.59508 10.2734 1.58583H9.72183ZM10.6733 2.99239C12.6866 2.99239 13.6933 4.84022 13.6933 8.5359C13.6933 9.94246 13.4589 10.9905 12.99 11.68C12.5212 12.3695 11.8363 12.7142 10.9353 12.7142C10.54 12.7142 10.2045 12.6774 9.92867 12.6039C9.66206 12.5302 9.4782 12.4705 9.37708 12.4246V3.19924C9.91029 3.06135 10.3424 2.99239 10.6733 2.99239ZM50.126 6.49501C49.1331 6.49501 48.1173 6.60073 47.0785 6.81217C45.9109 7.042 44.8675 7.39594 43.9482 7.87399C43.0288 8.34284 42.2566 8.92202 41.6315 9.61151C41.0155 10.301 40.5467 11.1008 40.2249 12.0109C39.9123 12.9211 39.7561 13.9277 39.7561 15.0309C39.7836 16.6121 40.1835 17.9911 40.9558 19.1679C41.7372 20.3354 42.845 21.2271 44.2791 21.8431C45.7225 22.459 47.4554 22.767 49.4779 22.767C51.4912 22.7578 53.2471 22.3993 54.7456 21.6914C56.2441 20.9835 57.3886 20.0274 58.1793 18.8231C58.9699 17.6188 59.3652 16.2766 59.3652 14.7965C59.3652 12.9119 58.9423 11.349 58.0965 10.1079C57.2508 8.85766 56.1246 7.94294 54.718 7.36377C53.3207 6.78459 51.79 6.49501 50.126 6.49501ZM30.5582 6.57775C28.6277 6.57775 26.9637 6.93628 25.5663 7.65335C24.169 8.37041 23.1117 9.37708 22.3947 10.6733C21.6776 11.9604 21.3191 13.4405 21.3191 15.1136C21.3191 16.1893 21.5121 17.1913 21.8982 18.1198C22.2935 19.0391 22.8635 19.8482 23.6082 20.5468C24.362 21.2455 25.263 21.7925 26.311 22.1878C27.359 22.5834 28.4944 22.7857 29.7171 22.7946C31.1144 22.7946 32.305 22.6245 33.2886 22.2844C34.2815 21.935 35.1411 21.4524 35.8673 20.8364C36.6028 20.2113 37.3291 19.4436 38.0461 18.5335L37.0808 17.5958C36.4465 18.4692 35.7248 19.177 34.9158 19.7194C34.1068 20.2618 33.2381 20.533 32.3096 20.533C31.7488 20.533 31.211 20.4181 30.6961 20.1883C30.1813 19.9493 29.7355 19.6091 29.3585 19.1679C28.9816 18.7266 28.6736 18.175 28.4346 17.5131C28.2783 17.0442 28.1496 16.557 28.0485 16.0514C27.9566 15.5457 27.8876 15.0815 27.8417 14.6586L27.7865 14.0105H37.7565C37.7565 13.036 37.5865 11.9972 37.2463 10.894C36.9062 9.78159 36.2029 8.78411 35.1365 7.90157C34.0701 7.01901 32.544 6.57775 30.5582 6.57775ZM67.97 6.57775C65.3408 7.5798 62.6426 8.21412 59.8754 8.48074V9.40466C60.3994 9.58855 60.8453 9.74943 61.213 9.8873C61.5899 10.016 61.852 10.1493 61.999 10.2872C62.1461 10.4159 62.2381 10.586 62.2748 10.7974C62.3116 11.0089 62.33 11.3996 62.33 11.9696V24.7941C62.33 25.695 62.1921 26.3478 61.9163 26.7523C61.6405 27.1659 61.2498 27.4187 60.7442 27.5107C60.5235 27.5475 60.3351 27.5659 60.1788 27.5659C60.0501 27.5659 59.949 27.5566 59.8754 27.5383V29H65.8326H72.1897V27.5383C72.0059 27.5934 71.7576 27.621 71.4451 27.621C70.728 27.621 70.0983 27.405 69.5559 26.9729C69.0135 26.5408 68.7423 25.787 68.7423 24.7114V22.2016C69.2939 22.3487 69.7903 22.4544 70.2316 22.5188C70.6728 22.5923 71.1463 22.6291 71.6519 22.6291C72.5896 22.6291 73.5549 22.5004 74.5478 22.243C75.5406 21.9764 76.483 21.5213 77.3747 20.8778C78.2664 20.2251 79.0157 19.3012 79.6224 18.106C80.2292 16.9017 80.5647 15.44 80.6291 13.7209C80.6291 12.4522 80.3671 11.2663 79.8431 10.1631C79.3283 9.05991 78.5974 8.18655 77.6505 7.54303C76.7036 6.8995 75.6142 6.57775 74.3823 6.57775C73.6285 6.57775 72.8424 6.80297 72.0242 7.25345C71.2152 7.69471 70.5303 8.14518 69.9696 8.60485C69.4088 9.06451 69.0181 9.40467 68.7974 9.6253V6.92249L67.97 6.57775ZM102.307 6.57775C100.376 6.57775 98.7122 6.93628 97.3148 7.65335C95.9174 8.37041 94.8602 9.37708 94.1431 10.6733C93.4261 11.9604 93.0675 13.4405 93.0675 15.1136C93.0675 16.1893 93.2606 17.1913 93.6467 18.1198C94.042 19.0391 94.612 19.8482 95.3566 20.5468C96.1105 21.2455 97.0114 21.7925 98.0594 22.1878C99.1075 22.5834 100.243 22.7857 101.466 22.7946C102.863 22.7946 104.053 22.6245 105.037 22.2844C106.03 21.935 106.89 21.4524 107.616 20.8364C108.351 20.2113 109.078 19.4436 109.795 18.5335L108.829 17.5958C108.195 18.4692 107.473 19.177 106.664 19.7194C105.855 20.2618 104.987 20.533 104.058 20.533C103.497 20.533 102.959 20.4181 102.445 20.1883C101.93 19.9493 101.484 19.6091 101.107 19.1679C100.73 18.7266 100.422 18.175 100.183 17.5131C100.027 17.0442 99.8981 16.557 99.797 16.0514C99.705 15.5457 99.6361 15.0815 99.5901 14.6586L99.5349 14.0105H109.505C109.505 13.036 109.335 11.9972 108.995 10.894C108.655 9.78159 107.951 8.78411 106.885 7.90157C105.819 7.01901 104.292 6.57775 102.307 6.57775ZM48.4023 7.79125C49.7905 7.79125 51.1005 9.57013 52.3324 13.1279C52.7645 14.2955 52.9805 15.5779 52.9805 16.9753C52.9805 17.9406 52.8748 18.7818 52.6633 19.4988C52.4611 20.2159 52.1807 20.6939 51.8222 20.933C51.5004 21.0984 51.2062 21.1812 50.9396 21.1812C50.3788 21.1812 49.8272 20.9008 49.2848 20.34C48.7424 19.77 48.246 19.03 47.7955 18.1198C47.3543 17.2005 47.0003 16.272 46.7337 15.3343C46.3384 13.8818 46.1407 12.5763 46.1407 11.418C46.1407 10.3332 46.32 9.45982 46.6786 8.79791C47.0463 8.1268 47.6209 7.79125 48.4023 7.79125ZM29.7171 7.97052C30.7651 7.97052 31.4224 8.87145 31.689 10.6733C31.7166 11.0227 31.7442 11.3766 31.7718 11.7351C31.7993 12.0845 31.8269 12.4384 31.8545 12.797H27.7865C27.8141 12.5028 27.8463 12.1304 27.883 11.68C27.929 11.2203 27.9658 10.9032 27.9933 10.7285C28.2783 9.00939 28.8529 8.09007 29.7171 7.97052ZM101.466 7.97052C102.514 7.97052 103.171 8.87145 103.437 10.6733C103.465 11.0227 103.493 11.3766 103.52 11.7351C103.548 12.0845 103.575 12.4384 103.603 12.797H99.5349C99.5625 12.5028 99.5947 12.1304 99.6315 11.68C99.6774 11.2203 99.7142 10.9032 99.7418 10.7285C100.027 9.00939 100.601 8.09007 101.466 7.97052ZM71.3072 9.72183C73.2286 9.72183 74.1892 11.6708 74.1892 15.5687C74.1892 17.1959 73.9456 18.5335 73.4584 19.5816C72.9711 20.6296 72.1897 21.1536 71.1141 21.1536C70.6453 21.1536 70.1304 21.0157 69.5697 20.7399C69.0181 20.4549 68.7423 20.271 68.7423 20.1883V11.2111C69.0916 10.7515 69.4869 10.3883 69.9282 10.1217C70.3695 9.85511 70.8291 9.72183 71.3072 9.72183Z" fill="white"/>
</g>
<defs>
<clipPath id="clip0">
<rect width="109.795" height="29" fill="white"/>
</clipPath>
</defs>
</svg>
