<svg width="167" height="29" viewBox="0 0 167 29" fill="none" xmlns="http://www.w3.org/2000/svg">
<g clip-path="url(#clip0)">
<path d="M89.2891 0C86.6874 0.965289 83.9984 1.60422 81.2221 1.91679V2.82691C82.0127 3.1211 82.5643 3.35552 82.8768 3.53019C83.1986 3.69567 83.41 3.87489 83.5112 4.068C83.6215 4.25186 83.6767 4.48629 83.6766 4.77128V5.47456V17.9681C83.6767 18.9058 83.5066 19.6321 83.1664 20.1469C82.8263 20.6526 82.3574 20.9054 81.7599 20.9054C81.53 20.9054 81.3508 20.887 81.2221 20.8502V22.2844C83.263 22.0729 85.1338 21.9672 86.8345 21.9672C88.5628 21.9672 90.4475 22.0729 92.4883 22.2844V20.8502C92.3229 20.9054 92.1252 20.933 91.8954 20.933C91.3898 20.933 90.9623 20.7169 90.6129 20.2848C90.2636 19.8436 90.0889 19.1081 90.0889 18.0785V0.399905L89.2891 0ZM9.72183 1.58583C8.9496 1.58583 7.47868 1.64099 5.30908 1.75131C3.49802 1.83405 1.72832 1.94897 0 2.09605V3.55777C0.165479 3.50261 0.372326 3.47504 0.620542 3.47504C1.17214 3.47504 1.65018 3.63592 2.05468 3.95768C2.45918 4.27944 2.66144 4.86321 2.66144 5.70899V18.699C2.66144 19.5448 2.4362 20.1147 1.98573 20.4089C1.53527 20.7031 0.873355 20.8502 0 20.8502V22.2844C3.48423 22.0729 5.67681 21.9672 6.57775 21.9672C8.58187 21.9672 10.7836 22.0729 13.1831 22.2844V20.9054C12.9992 20.9422 12.728 20.9605 12.3695 20.9605C11.5972 20.9605 10.9032 20.7996 10.2872 20.4779C9.68045 20.1561 9.37708 19.5816 9.37708 18.7542V13.9553C10.609 14.1759 11.68 14.2863 12.5901 14.2863C14.2449 14.2863 15.6744 14.0104 16.8787 13.4589C18.0831 12.9073 18.9932 12.1396 19.6091 11.156C20.2251 10.1631 20.533 9.04153 20.533 7.79125C20.5147 6.81678 20.3216 5.9572 19.9539 5.21255C19.5861 4.45871 19.0162 3.81978 18.2439 3.29577C17.4717 2.77175 16.4605 2.37185 15.2102 2.09605C13.9691 1.81106 12.4568 1.65018 10.6733 1.61341C10.5262 1.60428 10.3929 1.59508 10.2734 1.58583H9.72183ZM10.6733 2.99239C12.6866 2.99239 13.6933 4.84022 13.6933 8.5359C13.6933 9.94246 13.4589 10.9905 12.99 11.68C12.5212 12.3695 11.8363 12.7142 10.9353 12.7142C10.54 12.7142 10.2045 12.6774 9.92867 12.6039C9.66206 12.5302 9.4782 12.4705 9.37708 12.4246V3.19924C9.91029 3.06135 10.3424 2.99239 10.6733 2.99239ZM50.126 6.49501C49.1331 6.49501 48.1173 6.60073 47.0785 6.81217C45.9109 7.042 44.8675 7.39594 43.9482 7.87399C43.0288 8.34284 42.2566 8.92202 41.6315 9.61151C41.0155 10.301 40.5467 11.1008 40.2249 12.0109C39.9123 12.9211 39.7561 13.9277 39.7561 15.0309C39.7836 16.6121 40.1835 17.9911 40.9558 19.1679C41.7372 20.3354 42.845 21.2271 44.2791 21.8431C45.7225 22.459 47.4554 22.767 49.4779 22.767C51.4912 22.7578 53.2471 22.3993 54.7456 21.6914C56.2441 20.9835 57.3886 20.0274 58.1793 18.8231C58.9699 17.6188 59.3652 16.2766 59.3652 14.7965C59.3652 12.9119 58.9423 11.349 58.0965 10.1079C57.2508 8.85766 56.1246 7.94294 54.718 7.36377C53.3207 6.78459 51.79 6.49501 50.126 6.49501ZM30.5582 6.57775C28.6277 6.57775 26.9637 6.93628 25.5663 7.65335C24.169 8.37041 23.1117 9.37708 22.3947 10.6733C21.6776 11.9604 21.3191 13.4405 21.3191 15.1136C21.3191 16.1893 21.5121 17.1913 21.8982 18.1198C22.2935 19.0391 22.8635 19.8482 23.6082 20.5468C24.362 21.2455 25.263 21.7925 26.311 22.1878C27.359 22.5834 28.4944 22.7857 29.7171 22.7946C31.1144 22.7946 32.305 22.6245 33.2886 22.2844C34.2815 21.935 35.1411 21.4524 35.8673 20.8364C36.6028 20.2113 37.3291 19.4436 38.0461 18.5335L37.0808 17.5958C36.4465 18.4692 35.7248 19.177 34.9158 19.7194C34.1068 20.2618 33.2381 20.533 32.3096 20.533C31.7488 20.533 31.211 20.4181 30.6961 20.1883C30.1813 19.9493 29.7355 19.6091 29.3585 19.1679C28.9816 18.7266 28.6736 18.175 28.4346 17.5131C28.2783 17.0442 28.1496 16.557 28.0485 16.0514C27.9566 15.5457 27.8876 15.0815 27.8417 14.6586L27.7865 14.0105H37.7565C37.7565 13.036 37.5865 11.9972 37.2463 10.894C36.9062 9.78159 36.2029 8.78411 35.1365 7.90157C34.0701 7.01901 32.544 6.57775 30.5582 6.57775ZM67.97 6.57775C65.3408 7.5798 62.6426 8.21412 59.8754 8.48074V9.40466C60.3994 9.58855 60.8453 9.74943 61.213 9.8873C61.5899 10.016 61.852 10.1493 61.999 10.2872C62.1461 10.4159 62.2381 10.586 62.2748 10.7974C62.3116 11.0089 62.33 11.3996 62.33 11.9696V24.7941C62.33 25.695 62.1921 26.3478 61.9163 26.7523C61.6405 27.1659 61.2498 27.4187 60.7442 27.5107C60.5235 27.5475 60.3351 27.5659 60.1788 27.5659C60.0501 27.5659 59.949 27.5566 59.8754 27.5383V29H65.8326H72.1897V27.5383C72.0059 27.5934 71.7576 27.621 71.4451 27.621C70.728 27.621 70.0983 27.405 69.5559 26.9729C69.0135 26.5408 68.7423 25.787 68.7423 24.7114V22.2016C69.2939 22.3487 69.7903 22.4544 70.2316 22.5188C70.6728 22.5923 71.1463 22.6291 71.6519 22.6291C72.5896 22.6291 73.5549 22.5004 74.5478 22.243C75.5406 21.9764 76.483 21.5213 77.3747 20.8778C78.2664 20.2251 79.0157 19.3012 79.6224 18.106C80.2292 16.9017 80.5647 15.44 80.6291 13.7209C80.6291 12.4522 80.3671 11.2663 79.8431 10.1631C79.3283 9.05991 78.5974 8.18655 77.6505 7.54303C76.7036 6.8995 75.6142 6.57775 74.3823 6.57775C73.6285 6.57775 72.8424 6.80297 72.0242 7.25345C71.2152 7.69471 70.5303 8.14518 69.9696 8.60485C69.4088 9.06451 69.0181 9.40467 68.7974 9.6253V6.92249L67.97 6.57775ZM102.307 6.57775C100.376 6.57775 98.7122 6.93628 97.3148 7.65335C95.9174 8.37041 94.8602 9.37708 94.1431 10.6733C93.4261 11.9604 93.0675 13.4405 93.0675 15.1136C93.0675 16.1893 93.2606 17.1913 93.6467 18.1198C94.042 19.0391 94.612 19.8482 95.3566 20.5468C96.1105 21.2455 97.0114 21.7925 98.0594 22.1878C99.1075 22.5834 100.243 22.7857 101.466 22.7946C102.863 22.7946 104.053 22.6245 105.037 22.2844C106.03 21.935 106.89 21.4524 107.616 20.8364C108.351 20.2113 109.078 19.4436 109.795 18.5335L108.829 17.5958C108.195 18.4692 107.473 19.177 106.664 19.7194C105.855 20.2618 104.987 20.533 104.058 20.533C103.497 20.533 102.959 20.4181 102.445 20.1883C101.93 19.9493 101.484 19.6091 101.107 19.1679C100.73 18.7266 100.422 18.175 100.183 17.5131C100.027 17.0442 99.8981 16.557 99.797 16.0514C99.705 15.5457 99.6361 15.0815 99.5901 14.6586L99.5349 14.0105H109.505C109.505 13.036 109.335 11.9972 108.995 10.894C108.655 9.78159 107.951 8.78411 106.885 7.90157C105.819 7.01901 104.292 6.57775 102.307 6.57775ZM48.4023 7.79125C49.7905 7.79125 51.1005 9.57013 52.3324 13.1279C52.7645 14.2955 52.9805 15.5779 52.9805 16.9753C52.9805 17.9406 52.8748 18.7818 52.6633 19.4988C52.4611 20.2159 52.1807 20.6939 51.8222 20.933C51.5004 21.0984 51.2062 21.1812 50.9396 21.1812C50.3788 21.1812 49.8272 20.9008 49.2848 20.34C48.7424 19.77 48.246 19.03 47.7955 18.1198C47.3543 17.2005 47.0003 16.272 46.7337 15.3343C46.3384 13.8818 46.1407 12.5763 46.1407 11.418C46.1407 10.3332 46.32 9.45982 46.6786 8.79791C47.0463 8.1268 47.6209 7.79125 48.4023 7.79125ZM29.7171 7.97052C30.7651 7.97052 31.4224 8.87145 31.689 10.6733C31.7166 11.0227 31.7442 11.3766 31.7718 11.7351C31.7993 12.0845 31.8269 12.4384 31.8545 12.797H27.7865C27.8141 12.5028 27.8463 12.1304 27.883 11.68C27.929 11.2203 27.9658 10.9032 27.9933 10.7285C28.2783 9.00939 28.8529 8.09007 29.7171 7.97052ZM101.466 7.97052C102.514 7.97052 103.171 8.87145 103.437 10.6733C103.465 11.0227 103.493 11.3766 103.52 11.7351C103.548 12.0845 103.575 12.4384 103.603 12.797H99.5349C99.5625 12.5028 99.5947 12.1304 99.6315 11.68C99.6774 11.2203 99.7142 10.9032 99.7418 10.7285C100.027 9.00939 100.601 8.09007 101.466 7.97052ZM71.3072 9.72183C73.2286 9.72183 74.1892 11.6708 74.1892 15.5687C74.1892 17.1959 73.9456 18.5335 73.4584 19.5816C72.9711 20.6296 72.1897 21.1536 71.1141 21.1536C70.6453 21.1536 70.1304 21.0157 69.5697 20.7399C69.0181 20.4549 68.7423 20.271 68.7423 20.1883V11.2111C69.0916 10.7515 69.4869 10.3883 69.9282 10.1217C70.3695 9.85511 70.8291 9.72183 71.3072 9.72183Z" fill="white"/>
</g>
<path d="M119.772 19.6665C119.772 20.4282 119.61 21.0229 119.285 21.4507C118.959 21.8755 118.505 22.0879 117.922 22.0879C117.407 22.0879 116.995 21.8901 116.688 21.4946L116.63 22H115.488V15.25H116.758V17.6714C117.051 17.3286 117.436 17.1572 117.914 17.1572C118.494 17.1572 118.948 17.3711 119.276 17.7988C119.607 18.2236 119.772 18.8228 119.772 19.5962V19.6665ZM118.502 19.5742C118.502 19.0938 118.426 18.7437 118.274 18.5239C118.122 18.3013 117.895 18.1899 117.593 18.1899C117.188 18.1899 116.91 18.3555 116.758 18.6865V20.563C116.913 20.897 117.194 21.064 117.602 21.064C118.012 21.064 118.281 20.8618 118.41 20.4575C118.472 20.2642 118.502 19.9697 118.502 19.5742ZM122.282 20.2026L123.161 17.2451H124.523L122.611 22.7383L122.506 22.9888C122.222 23.6099 121.753 23.9204 121.1 23.9204C120.915 23.9204 120.728 23.8926 120.537 23.8369V22.8745L120.73 22.8789C120.971 22.8789 121.149 22.8423 121.267 22.769C121.387 22.6958 121.48 22.5742 121.548 22.4043L121.697 22.0132L120.032 17.2451H121.398L122.282 20.2026Z" fill="white"/>
<path d="M132.388 16.6694H130.428V22H129.109V16.6694H127.176V15.6016H132.388V16.6694ZM135.077 22C135.019 21.8857 134.976 21.7437 134.95 21.5737C134.642 21.9165 134.242 22.0879 133.75 22.0879C133.284 22.0879 132.897 21.9531 132.59 21.6836C132.285 21.4141 132.133 21.0742 132.133 20.6641C132.133 20.1602 132.319 19.7734 132.691 19.5039C133.066 19.2344 133.606 19.0981 134.312 19.0952H134.897V18.8228C134.897 18.603 134.84 18.4272 134.726 18.2954C134.614 18.1636 134.437 18.0977 134.194 18.0977C133.98 18.0977 133.812 18.1489 133.688 18.2515C133.568 18.354 133.508 18.4946 133.508 18.6733H132.238C132.238 18.3979 132.323 18.1431 132.493 17.9087C132.663 17.6743 132.903 17.4912 133.214 17.3594C133.524 17.2246 133.873 17.1572 134.26 17.1572C134.846 17.1572 135.31 17.3052 135.653 17.6011C135.999 17.894 136.171 18.3071 136.171 18.8403V20.9014C136.174 21.3525 136.237 21.6938 136.36 21.9253V22H135.077ZM134.027 21.1167C134.214 21.1167 134.387 21.0757 134.545 20.9937C134.704 20.9087 134.821 20.7959 134.897 20.6553V19.8379H134.422C133.787 19.8379 133.448 20.0576 133.407 20.4971L133.403 20.5718C133.403 20.73 133.458 20.8604 133.57 20.9629C133.681 21.0654 133.833 21.1167 134.027 21.1167ZM138.487 22H137.213V15.25H138.487V22ZM141.726 22.0879C141.029 22.0879 140.46 21.874 140.021 21.4463C139.584 21.0186 139.366 20.4487 139.366 19.7368V19.6138C139.366 19.1362 139.458 18.71 139.643 18.335C139.828 17.957 140.088 17.667 140.425 17.4648C140.765 17.2598 141.152 17.1572 141.585 17.1572C142.236 17.1572 142.747 17.3623 143.119 17.7725C143.494 18.1826 143.682 18.7642 143.682 19.5171V20.0356H140.654C140.695 20.3462 140.818 20.5952 141.023 20.7827C141.231 20.9702 141.493 21.064 141.81 21.064C142.299 21.064 142.681 20.8867 142.957 20.5322L143.581 21.231C143.39 21.5005 143.132 21.7114 142.807 21.8638C142.482 22.0132 142.122 22.0879 141.726 22.0879ZM141.581 18.1855C141.329 18.1855 141.124 18.2705 140.966 18.4404C140.811 18.6104 140.711 18.8535 140.667 19.1699H142.434V19.0688C142.428 18.7876 142.352 18.5708 142.205 18.4185C142.059 18.2632 141.851 18.1855 141.581 18.1855ZM145.576 17.2451L145.615 17.7944C145.955 17.3696 146.411 17.1572 146.982 17.1572C147.486 17.1572 147.861 17.3052 148.107 17.6011C148.353 17.897 148.479 18.3394 148.485 18.9282V22H147.215V18.959C147.215 18.6895 147.156 18.4946 147.039 18.3745C146.922 18.2515 146.727 18.1899 146.455 18.1899C146.097 18.1899 145.829 18.3423 145.65 18.647V22H144.38V17.2451H145.576ZM150.972 16.0762V17.2451H151.785V18.1768H150.972V20.5498C150.972 20.7256 151.006 20.8516 151.073 20.9277C151.141 21.0039 151.27 21.042 151.46 21.042C151.601 21.042 151.725 21.0317 151.833 21.0112V21.9736C151.584 22.0498 151.328 22.0879 151.064 22.0879C150.174 22.0879 149.72 21.6382 149.702 20.7388V18.1768H149.008V17.2451H149.702V16.0762H150.972ZM157.639 21.1914C157.401 21.4756 157.066 21.6968 156.632 21.855C156.199 22.0103 155.718 22.0879 155.191 22.0879C154.637 22.0879 154.151 21.9678 153.732 21.7275C153.316 21.4844 152.994 21.1328 152.765 20.6729C152.54 20.2129 152.424 19.6724 152.418 19.0513V18.6162C152.418 17.9775 152.525 17.4253 152.739 16.9595C152.956 16.4907 153.266 16.1333 153.67 15.8872C154.078 15.6382 154.554 15.5137 155.099 15.5137C155.857 15.5137 156.451 15.6953 156.878 16.0586C157.306 16.4189 157.56 16.9448 157.639 17.6362H156.355C156.297 17.27 156.167 17.002 155.964 16.832C155.765 16.6621 155.49 16.5771 155.138 16.5771C154.69 16.5771 154.349 16.7456 154.114 17.0825C153.88 17.4194 153.761 17.9204 153.758 18.5854V18.9941C153.758 19.665 153.886 20.1719 154.141 20.5146C154.396 20.8574 154.769 21.0288 155.261 21.0288C155.756 21.0288 156.109 20.9233 156.32 20.7124V19.6094H155.121V18.6382H157.639V21.1914ZM161.299 18.436C161.126 18.4126 160.974 18.4009 160.842 18.4009C160.362 18.4009 160.047 18.5635 159.897 18.8887V22H158.627V17.2451H159.827L159.862 17.812C160.117 17.3755 160.47 17.1572 160.921 17.1572C161.062 17.1572 161.194 17.1763 161.317 17.2144L161.299 18.436ZM163.255 22H161.98V17.2451H163.255V22ZM161.906 16.0146C161.906 15.8242 161.969 15.6675 162.095 15.5444C162.224 15.4214 162.398 15.3599 162.618 15.3599C162.834 15.3599 163.007 15.4214 163.136 15.5444C163.265 15.6675 163.33 15.8242 163.33 16.0146C163.33 16.208 163.264 16.3662 163.132 16.4893C163.003 16.6123 162.832 16.6738 162.618 16.6738C162.404 16.6738 162.231 16.6123 162.099 16.4893C161.97 16.3662 161.906 16.208 161.906 16.0146ZM165.826 16.0762V17.2451H166.639V18.1768H165.826V20.5498C165.826 20.7256 165.859 20.8516 165.927 20.9277C165.994 21.0039 166.123 21.042 166.313 21.042C166.454 21.042 166.579 21.0317 166.687 21.0112V21.9736C166.438 22.0498 166.182 22.0879 165.918 22.0879C165.027 22.0879 164.573 21.6382 164.556 20.7388V18.1768H163.861V17.2451H164.556V16.0762H165.826Z" fill="#FFC700"/>
<defs>
<clipPath id="clip0">
<rect width="109.795" height="29" fill="white"/>
</clipPath>
</defs>
</svg>
