<svg width="694" height="694" viewBox="0 0 694 694" fill="none" xmlns="http://www.w3.org/2000/svg">
<circle cx="347" cy="347" r="347" fill="#F0F0F0"/>
<mask id="mask0" mask-type="alpha" maskUnits="userSpaceOnUse" x="0" y="0" width="694" height="694">
<circle cx="347" cy="347" r="347" fill="#F0F0F0"/>
</mask>
<g mask="url(#mask0)">
<path fill-rule="evenodd" clip-rule="evenodd" d="M394.769 214.332C405.495 207.096 414.164 197.053 416.765 183.935C424.261 146.138 369.271 140.462 353.884 156.495C338.497 172.528 326.715 220.344 339.062 227.17C343.986 229.892 356.148 229.578 369.468 225.819L348.625 273.782L391.127 284.93L394.769 214.332Z" fill="#915B3C"/>
<path fill-rule="evenodd" clip-rule="evenodd" d="M347.57 163.849C348.656 161.533 350.422 159.107 351.881 157.029C353.762 154.349 356.112 152.105 358.583 150.057C363.235 146.202 368.432 142.981 373.848 140.598C383.742 136.244 395.101 135.216 404.932 139.096C409.896 141.055 414.353 144.278 417.72 148.58C420.761 152.466 423.285 157.675 428.162 159.28C433.469 161.028 439.692 157.662 444.809 155.917C450.579 153.95 456.418 152.946 462.374 153.523C472.351 154.489 480.463 160.004 484.948 169.406C489.72 179.411 491.536 192.725 483.972 202.339C482.566 204.126 481.001 205.533 479.037 206.524C477.236 207.433 474.648 208.224 473.497 210.129C472.274 212.155 473.365 215.468 473.547 217.633C473.807 220.734 473.844 223.927 472.7 226.924C470.821 231.845 466.258 235.817 461.925 238.239C457.516 240.704 452.697 241.516 447.871 241.208C444.649 241.002 441.433 240.511 438.386 239.472C436.873 238.956 435.626 238.179 434.223 237.453C432.857 236.747 431.941 236.912 430.494 237.369C423.771 239.493 417.225 239.279 410.755 237.004C405.295 235.084 399.221 232.071 395.69 227.13C391.77 221.643 393.441 215.933 396.309 210.116C394.88 210.397 391.287 209.86 394.04 207.968C395.13 207.219 396.798 207.235 398.014 206.945C399.429 206.607 400.916 206.081 402.17 205.253C407.232 201.91 405.751 192.017 401.288 189.28C394.656 185.214 390.3 194.793 384.433 196.028C381.06 196.738 378.514 193.891 376.86 191.231C374.645 187.669 373.625 183.451 372.9 179.241C372.302 175.775 371.817 172.291 371.187 168.832C370.894 167.217 369.627 162.536 371.265 161.227C366.366 158.859 360.025 159.452 354.811 161.044C352.656 161.703 350.907 162.593 349.373 164.35C349.044 164.726 348.235 165.89 347.645 165.791C346.546 165.608 347.298 164.432 347.57 163.849Z" fill="#191847"/>
<path fill-rule="evenodd" clip-rule="evenodd" d="M437.831 604.88C393.849 616.922 355.903 622.943 323.993 622.943C292.083 622.943 262.443 613.671 235.074 595.126C278.114 582.765 313.559 576.585 341.409 576.585C369.26 576.585 401.4 586.017 437.831 604.88Z" fill="#1F28CF"/>
<path fill-rule="evenodd" clip-rule="evenodd" d="M285.919 640.301C286.343 639.677 286.701 638.998 286.985 638.263C292.864 623.043 387.029 458.855 396.411 428.837H290.394C283.261 451.66 251.158 594.886 246.64 623.462C232.385 668.537 203.035 814.518 199.288 824.632C195.347 835.27 217.524 846.353 223.434 833.274C232.838 812.463 255.243 754.879 265.22 719.718C274.572 686.756 282.188 657.1 285.919 640.301Z" fill="#784931"/>
<path fill-rule="evenodd" clip-rule="evenodd" d="M372.656 660.347C415.706 670.999 573.177 690.255 583.984 693.275C595.1 696.382 604.847 673.952 591.106 669.093C569.243 661.362 509 643.498 472.474 636.209C443.095 630.346 416.286 625.561 398.287 622.759C399.812 573.266 406.783 454.491 402.214 428.837H308.409C312.79 453.437 349.825 632.931 356.708 650.898C358.892 657.312 365.41 660.147 372.656 660.347Z" fill="#915B3C"/>
<path fill-rule="evenodd" clip-rule="evenodd" d="M590.109 663.121C595.857 662.074 600.07 661.782 602.747 662.244C606.002 662.806 610.658 664.157 616.713 666.297C616.047 669.994 610.062 703.224 598.757 765.986C589.542 767.066 585.088 764.755 585.396 759.054C585.703 753.352 585.909 748.607 586.012 744.818L573.257 694.841C573.011 693.88 573.609 692.905 574.591 692.665C574.608 692.661 574.625 692.657 574.642 692.653L582.558 690.949C585.952 686.207 587.939 682.221 588.521 678.991C588.994 676.366 588.564 672.554 587.231 667.556L587.231 667.556C586.72 665.638 587.894 663.677 589.853 663.176C589.938 663.155 590.023 663.136 590.109 663.121Z" fill="#E4E4E4"/>
<path fill-rule="evenodd" clip-rule="evenodd" d="M401.911 428.837C360.574 417.26 321.462 417.26 284.575 428.837C271.741 486.157 240.558 508.907 235.074 596.787C297.409 627.107 374.41 575.163 438.578 604.731C456.912 563.373 431.245 463.771 401.911 428.837Z" fill="#2B44FF"/>
<path fill-rule="evenodd" clip-rule="evenodd" d="M304.139 310.602L247.522 266.184C239.283 252.271 230.71 241.089 221.802 232.641C218.939 230.844 213.672 229.146 217.145 238.801C220.617 248.456 223.826 258.764 220.764 261.026C217.702 263.287 211.961 258.399 208.079 262.364C205.491 265.007 215.609 271.635 238.432 282.248L276.617 330.923L304.139 310.602ZM200.881 322.01L176.02 302.454C174.749 287.4 171.436 279.364 166.08 278.346C162.292 275.754 166.204 295.175 158.665 292.248C151.126 289.321 134.536 272.124 130.738 274.379C125.118 277.714 127.149 291.285 131.114 298.546C138.523 312.117 145.702 317.559 164.298 326.273C174.021 330.829 184.069 338.332 194.443 348.782L200.881 322.01Z" fill="#915B3C"/>
<path fill-rule="evenodd" clip-rule="evenodd" d="M336.008 308.385C314.098 304.369 285.644 294.778 257.907 269.979L240.818 294.639C258.592 319.288 285.787 341.713 312.405 345.557C333.382 348.586 348.502 325.711 336.008 308.385Z" fill="#2026A2"/>
<path fill-rule="evenodd" clip-rule="evenodd" d="M298.716 346.226C274.388 347.893 236.518 334.438 185.106 305.862C166.537 331.068 156.709 349.627 155.622 361.539C198.344 393.724 236.743 411.413 269.843 417.857C265.31 436.975 264.402 455.754 269.441 473.927C279.801 511.285 382.602 496.088 414.099 508.008C446.234 446.572 411.48 413.352 418.935 371.78C427.1 326.253 402.383 249.742 396.889 248.794L346.792 240.146C337.766 274.434 316.952 310.346 298.716 346.226Z" fill="#1F28CF"/>
</g>
</svg>
