<svg width="184" height="34" viewBox="0 0 184 34" fill="none" xmlns="http://www.w3.org/2000/svg">
<path d="M145.627 17.8887C145.627 18.8652 145.404 19.6484 144.959 20.2383C144.518 20.8242 143.92 21.1172 143.166 21.1172C142.525 21.1172 142.008 20.8945 141.613 20.4492V23.4375H139.92V14.6602H141.49L141.549 15.2812C141.959 14.7891 142.494 14.543 143.154 14.543C143.936 14.543 144.543 14.832 144.977 15.4102C145.41 15.9883 145.627 16.7852 145.627 17.8008V17.8887ZM143.934 17.7656C143.934 17.1758 143.828 16.7207 143.617 16.4004C143.41 16.0801 143.107 15.9199 142.709 15.9199C142.178 15.9199 141.812 16.123 141.613 16.5293V19.125C141.82 19.543 142.189 19.752 142.721 19.752C143.529 19.752 143.934 19.0898 143.934 17.7656ZM150.244 16.248C150.014 16.2168 149.811 16.2012 149.635 16.2012C148.994 16.2012 148.574 16.418 148.375 16.8516V21H146.682V14.6602H148.281L148.328 15.416C148.668 14.834 149.139 14.543 149.74 14.543C149.928 14.543 150.104 14.5684 150.268 14.6191L150.244 16.248ZM153.865 21.1172C152.936 21.1172 152.178 20.832 151.592 20.2617C151.01 19.6914 150.719 18.9316 150.719 17.9824V17.8184C150.719 17.1816 150.842 16.6133 151.088 16.1133C151.334 15.6094 151.682 15.2227 152.131 14.9531C152.584 14.6797 153.1 14.543 153.678 14.543C154.545 14.543 155.227 14.8164 155.723 15.3633C156.223 15.9102 156.473 16.6855 156.473 17.6895V18.3809H152.436C152.49 18.7949 152.654 19.127 152.928 19.377C153.205 19.627 153.555 19.752 153.977 19.752C154.629 19.752 155.139 19.5156 155.506 19.043L156.338 19.9746C156.084 20.334 155.74 20.6152 155.307 20.8184C154.873 21.0176 154.393 21.1172 153.865 21.1172ZM153.672 15.9141C153.336 15.9141 153.062 16.0273 152.852 16.2539C152.645 16.4805 152.512 16.8047 152.453 17.2266H154.809V17.0918C154.801 16.7168 154.699 16.4277 154.504 16.2246C154.309 16.0176 154.031 15.9141 153.672 15.9141ZM160.873 19.248C160.873 19.041 160.77 18.8789 160.562 18.7617C160.359 18.6406 160.031 18.5332 159.578 18.4395C158.07 18.123 157.316 17.4824 157.316 16.5176C157.316 15.9551 157.549 15.4863 158.014 15.1113C158.482 14.7324 159.094 14.543 159.848 14.543C160.652 14.543 161.295 14.7324 161.775 15.1113C162.26 15.4902 162.502 15.9824 162.502 16.5879H160.809C160.809 16.3457 160.73 16.1465 160.574 15.9902C160.418 15.8301 160.174 15.75 159.842 15.75C159.557 15.75 159.336 15.8145 159.18 15.9434C159.023 16.0723 158.945 16.2363 158.945 16.4355C158.945 16.623 159.033 16.7754 159.209 16.8926C159.389 17.0059 159.689 17.1055 160.111 17.1914C160.533 17.2734 160.889 17.3672 161.178 17.4727C162.072 17.8008 162.52 18.3691 162.52 19.1777C162.52 19.7559 162.271 20.2246 161.775 20.584C161.279 20.9395 160.639 21.1172 159.854 21.1172C159.322 21.1172 158.85 21.0234 158.436 20.8359C158.025 20.6445 157.703 20.3848 157.469 20.0566C157.234 19.7246 157.117 19.3672 157.117 18.9844H158.723C158.738 19.2852 158.85 19.5156 159.057 19.6758C159.264 19.8359 159.541 19.916 159.889 19.916C160.213 19.916 160.457 19.8555 160.621 19.7344C160.789 19.6094 160.873 19.4473 160.873 19.248ZM166.533 21.1172C165.604 21.1172 164.846 20.832 164.26 20.2617C163.678 19.6914 163.387 18.9316 163.387 17.9824V17.8184C163.387 17.1816 163.51 16.6133 163.756 16.1133C164.002 15.6094 164.35 15.2227 164.799 14.9531C165.252 14.6797 165.768 14.543 166.346 14.543C167.213 14.543 167.895 14.8164 168.391 15.3633C168.891 15.9102 169.141 16.6855 169.141 17.6895V18.3809H165.104C165.158 18.7949 165.322 19.127 165.596 19.377C165.873 19.627 166.223 19.752 166.645 19.752C167.297 19.752 167.807 19.5156 168.174 19.043L169.006 19.9746C168.752 20.334 168.408 20.6152 167.975 20.8184C167.541 21.0176 167.061 21.1172 166.533 21.1172ZM166.34 15.9141C166.004 15.9141 165.73 16.0273 165.52 16.2539C165.312 16.4805 165.18 16.8047 165.121 17.2266H167.477V17.0918C167.469 16.7168 167.367 16.4277 167.172 16.2246C166.977 16.0176 166.699 15.9141 166.34 15.9141ZM171.666 14.6602L171.719 15.3926C172.172 14.8262 172.779 14.543 173.541 14.543C174.213 14.543 174.713 14.7402 175.041 15.1348C175.369 15.5293 175.537 16.1191 175.545 16.9043V21H173.852V16.9453C173.852 16.5859 173.773 16.3262 173.617 16.166C173.461 16.002 173.201 15.9199 172.838 15.9199C172.361 15.9199 172.004 16.123 171.766 16.5293V21H170.072V14.6602H171.666ZM178.861 13.1016V14.6602H179.945V15.9023H178.861V19.0664C178.861 19.3008 178.906 19.4688 178.996 19.5703C179.086 19.6719 179.258 19.7227 179.512 19.7227C179.699 19.7227 179.865 19.709 180.01 19.6816V20.9648C179.678 21.0664 179.336 21.1172 178.984 21.1172C177.797 21.1172 177.191 20.5176 177.168 19.3184V15.9023H176.242V14.6602H177.168V13.1016H178.861ZM180.977 20.168C180.977 19.8984 181.066 19.6797 181.246 19.5117C181.43 19.3438 181.658 19.2598 181.932 19.2598C182.209 19.2598 182.438 19.3438 182.617 19.5117C182.801 19.6797 182.893 19.8984 182.893 20.168C182.893 20.4336 182.803 20.6504 182.623 20.8184C182.443 20.9824 182.213 21.0645 181.932 21.0645C181.654 21.0645 181.426 20.9824 181.246 20.8184C181.066 20.6504 180.977 20.4336 180.977 20.168Z" fill="white"/>
<path d="M17.3604 9.82373H11.0449V27H6.79688V9.82373H0.566406V6.38281H17.3604V9.82373ZM26.0264 27C25.8376 26.6318 25.7007 26.174 25.6157 25.6265C24.6245 26.731 23.3359 27.2832 21.75 27.2832C20.249 27.2832 19.0029 26.849 18.0117 25.9805C17.0299 25.112 16.5391 24.0169 16.5391 22.6953C16.5391 21.0716 17.1385 19.8255 18.3374 18.957C19.5457 18.0885 21.2874 17.6496 23.5625 17.6401H25.4458V16.7622C25.4458 16.0542 25.2617 15.4878 24.8936 15.063C24.5348 14.6382 23.9637 14.4258 23.1802 14.4258C22.491 14.4258 21.9482 14.591 21.5518 14.9214C21.1647 15.2518 20.9712 15.7049 20.9712 16.2808H16.8789C16.8789 15.3934 17.1527 14.5721 17.7002 13.8169C18.2477 13.0617 19.0218 12.4717 20.0225 12.0469C21.0231 11.6126 22.1465 11.3955 23.3926 11.3955C25.2806 11.3955 26.7769 11.8722 27.8813 12.8257C28.9953 13.7697 29.5522 15.1007 29.5522 16.8188V23.46C29.5617 24.9137 29.7646 26.0135 30.1611 26.7593V27H26.0264ZM22.6421 24.1538C23.2463 24.1538 23.8032 24.0216 24.313 23.7573C24.8228 23.4836 25.2004 23.1201 25.4458 22.667V20.0332H23.9165C21.868 20.0332 20.7777 20.7412 20.6455 22.1572L20.6313 22.3979C20.6313 22.9077 20.8107 23.3278 21.1694 23.6582C21.5282 23.9886 22.019 24.1538 22.6421 24.1538ZM37.0146 27H32.9082V5.25H37.0146V27ZM47.4507 27.2832C45.2039 27.2832 43.3726 26.5941 41.9565 25.2158C40.55 23.8376 39.8467 22.0015 39.8467 19.7075V19.311C39.8467 17.7723 40.144 16.3988 40.7388 15.1904C41.3335 13.9727 42.1737 13.0381 43.2593 12.3867C44.3543 11.7259 45.6004 11.3955 46.9976 11.3955C49.0933 11.3955 50.7406 12.0563 51.9395 13.3779C53.1478 14.6995 53.752 16.5734 53.752 18.9995V20.6704H43.9956C44.1278 21.6711 44.5243 22.4735 45.1851 23.0776C45.8553 23.6818 46.7002 23.9839 47.7197 23.9839C49.2962 23.9839 50.5282 23.4128 51.4155 22.2705L53.4263 24.522C52.8127 25.3905 51.9819 26.0701 50.9341 26.561C49.8862 27.0425 48.7251 27.2832 47.4507 27.2832ZM46.9834 14.709C46.1715 14.709 45.5107 14.9827 45.001 15.5303C44.5007 16.0778 44.1797 16.8613 44.0381 17.8809H49.7305V17.5552C49.7116 16.6489 49.4661 15.9504 48.9941 15.4595C48.5221 14.9591 47.8519 14.709 46.9834 14.709ZM59.855 11.6787L59.9824 13.4487C61.0775 12.0799 62.5454 11.3955 64.3862 11.3955C66.0099 11.3955 67.2183 11.8722 68.0112 12.8257C68.8042 13.7791 69.2101 15.2046 69.229 17.1021V27H65.1367V17.2012C65.1367 16.3327 64.9479 15.7049 64.5703 15.3179C64.1927 14.9214 63.5649 14.7231 62.687 14.7231C61.5353 14.7231 60.6715 15.214 60.0957 16.1958V27H56.0034V11.6787H59.855ZM77.2437 7.91211V11.6787H79.8633V14.6807H77.2437V22.3271C77.2437 22.8936 77.3522 23.2995 77.5693 23.5449C77.7865 23.7904 78.2018 23.9131 78.8154 23.9131C79.2686 23.9131 79.6698 23.88 80.019 23.814V26.915C79.2166 27.1605 78.3906 27.2832 77.541 27.2832C74.6712 27.2832 73.208 25.8341 73.1514 22.936V14.6807H70.9141V11.6787H73.1514V7.91211H77.2437ZM98.7246 24.3945C97.96 25.3102 96.8791 26.0229 95.4819 26.5327C94.0848 27.033 92.5366 27.2832 90.8374 27.2832C89.0532 27.2832 87.4862 26.8962 86.1362 26.1221C84.7957 25.3385 83.7573 24.2057 83.021 22.7236C82.2941 21.2415 81.9212 19.4998 81.9023 17.4985V16.0967C81.9023 14.0387 82.2469 12.2593 82.936 10.7583C83.6346 9.24788 84.6353 8.09619 85.938 7.30322C87.2502 6.50081 88.7842 6.09961 90.54 6.09961C92.985 6.09961 94.8966 6.6849 96.2749 7.85547C97.6532 9.0166 98.4697 10.7111 98.7246 12.939H94.5898C94.401 11.759 93.981 10.8952 93.3296 10.3477C92.6877 9.80013 91.8003 9.52637 90.6675 9.52637C89.2231 9.52637 88.1234 10.0692 87.3682 11.1548C86.613 12.2404 86.2306 13.8547 86.2212 15.9976V17.3145C86.2212 19.4762 86.6318 21.1094 87.4531 22.2139C88.2744 23.3184 89.478 23.8706 91.064 23.8706C92.6593 23.8706 93.7969 23.5308 94.4766 22.8511V19.2969H90.6108V16.1675H98.7246V24.3945ZM110.52 15.5161C109.963 15.4406 109.472 15.4028 109.047 15.4028C107.499 15.4028 106.484 15.9268 106.003 16.9746V27H101.911V11.6787H105.776L105.89 13.5054C106.711 12.0988 107.848 11.3955 109.302 11.3955C109.755 11.3955 110.18 11.4569 110.577 11.5796L110.52 15.5161ZM116.821 27H112.715V11.6787H116.821V27ZM112.474 7.71387C112.474 7.10026 112.677 6.59521 113.083 6.19873C113.498 5.80225 114.06 5.604 114.768 5.604C115.467 5.604 116.024 5.80225 116.439 6.19873C116.854 6.59521 117.062 7.10026 117.062 7.71387C117.062 8.33691 116.85 8.84668 116.425 9.24316C116.009 9.63965 115.457 9.83789 114.768 9.83789C114.079 9.83789 113.522 9.63965 113.097 9.24316C112.682 8.84668 112.474 8.33691 112.474 7.71387ZM125.105 7.91211V11.6787H127.725V14.6807H125.105V22.3271C125.105 22.8936 125.214 23.2995 125.431 23.5449C125.648 23.7904 126.063 23.9131 126.677 23.9131C127.13 23.9131 127.531 23.88 127.88 23.814V26.915C127.078 27.1605 126.252 27.2832 125.402 27.2832C122.533 27.2832 121.069 25.8341 121.013 22.936V14.6807H118.775V11.6787H121.013V7.91211H125.105Z" fill="#FFC700"/>
</svg>
